<svg
    xmlns="http://www.w3.org/2000/svg"
    viewBox="0 0 24 24"
    id="vector">
    <path
        id="path_1"
        d="M 15.75 16 L 12 21 L 8.25 16 L 4.995 16 C 4.644 16 4.299 15.907 3.996 15.731 C 3.692 15.555 3.44 15.302 3.265 14.997 C 3.09 14.693 2.999 14.348 3 13.997 L 3 5.003 C 3 3.897 3.893 3 4.995 3 L 19.005 3 C 20.107 3 21 3.894 21 5.003 L 21 13.997 C 21.001 14.348 20.909 14.693 20.734 14.997 C 20.559 15.301 20.307 15.554 20.004 15.73 C 19.7 15.906 19.356 15.999 19.005 16 L 15.75 16 Z M 8 8 L 16 8 M 8 12 L 16 12"
        fill="#00000000"
        stroke="#0eaeb6"
        stroke-width="2"
        stroke-linecap="round"
        stroke-linejoin="round"
        fill-rule="evenodd"/>
</svg>
