<svg
    xmlns="http://www.w3.org/2000/svg"
    viewBox="0 0 81 70"
    id="vector">
    <path
        id="path"
        d="M 81 69.446 C 81 69.751 80.686 70 80.302 70 L 0.698 70 C 0.314 70 0 69.75 0 69.446 L 0 67.466 C 0 67.161 0.314 66.912 0.698 66.912 L 80.302 66.912 C 80.686 66.912 81 67.161 81 67.465 L 81 69.446 Z"
        fill="#333e48"
        fill-rule="evenodd"/>
    <path
        id="path_2"
        d="M 80.312 66.912 L 43.615 66.912 L 43.615 70 L 80.312 70 C 80.691 70 81 69.75 81 69.446 L 81 67.466 C 81 67.161 80.69 66.912 80.312 66.912 Z"
        fill="#00ad68"
        fill-rule="evenodd"/>
    <path
        id="path_3"
        d="M 6.231 8.235 L 45.693 8.235 L 45.693 66.911 L 6.231 66.911 Z"
        fill="#d1d3d3"
        fill-rule="evenodd"/>
    <path
        id="path_4"
        d="M 6.231 8.235 L 45.693 8.235 L 45.693 16.47 L 6.231 16.47 Z"
        fill="#000000"
        fill-opacity="0.1"
        stroke-opacity="0.1"
        fill-rule="evenodd"/>
    <path
        id="path_5"
        d="M 11.423 44.265 L 40.5 44.265 L 40.5 51.471 L 11.423 51.471 Z"
        fill="#ffffff"
        fill-rule="evenodd"/>
    <path
        id="path_6"
        d="M 11.423 43.235 L 40.5 43.235 L 40.5 46.323 L 11.423 46.323 Z"
        fill="#000000"
        fill-opacity="0.2"
        stroke-opacity="0.2"
        fill-rule="evenodd"/>
    <path
        id="path_7"
        d="M 24.923 44.265 L 27 44.265 L 27 51.471 L 24.923 51.471 Z"
        fill="#333e48"
        fill-rule="evenodd"/>
    <path
        id="path_8"
        d="M 11.423 31.912 L 40.5 31.912 L 40.5 39.118 L 11.423 39.118 Z"
        fill="#ffffff"
        fill-rule="evenodd"/>
    <path
        id="path_9"
        d="M 11.423 31.912 L 40.5 31.912 L 40.5 35 L 11.423 35 Z"
        fill="#000000"
        fill-opacity="0.2"
        stroke-opacity="0.2"
        fill-rule="evenodd"/>
    <path
        id="path_10"
        d="M 24.923 31.912 L 27 31.912 L 27 39.118 L 24.923 39.118 Z"
        fill="#333e48"
        fill-rule="evenodd"/>
    <path
        id="path_11"
        d="M 11.423 19.559 L 40.5 19.559 L 40.5 26.765 L 11.423 26.765 Z"
        fill="#ffffff"
        fill-rule="evenodd"/>
    <path
        id="path_12"
        d="M 11.423 19.559 L 40.5 19.559 L 40.5 22.647 L 11.423 22.647 Z"
        fill="#000000"
        fill-opacity="0.2"
        stroke-opacity="0.2"
        fill-rule="evenodd"/>
    <path
        id="path_13"
        d="M 24.923 19.559 L 27 19.559 L 27 26.765 L 24.923 26.765 Z"
        fill="#333e48"
        fill-rule="evenodd"/>
    <path
        id="path_14"
        d="M 17.654 56.618 L 33.231 56.618 L 33.231 66.912 L 17.654 66.912 Z"
        fill="#ffffff"
        stroke="#333e48"
        stroke-width="2.5"
        fill-rule="evenodd"/>
    <path
        id="path_15"
        d="M 24.897 56.618 L 26.974 56.618 L 26.974 66.912 L 24.897 66.912 Z"
        fill="#333e48"
        fill-rule="evenodd"/>
    <path
        id="path_16"
        d="M 46.054 5.178 L 33.958 5.178 L 33.958 1.565 C 33.958 0.705 33.187 0 32.243 0 L 18.642 0 C 17.698 0 16.927 0.704 16.927 1.565 L 16.927 5.178 L 4.83 5.178 C 3.887 5.178 3.115 5.882 3.115 6.743 L 3.115 12.847 C 3.115 13.707 3.887 14.412 4.83 14.412 L 46.054 14.412 C 46.998 14.412 47.769 13.708 47.769 12.847 L 47.769 6.743 C 47.769 5.882 46.997 5.178 46.054 5.178 Z"
        fill="#ff5959"
        fill-rule="evenodd"/>
    <path
        id="path_17"
        d="M 30.265 5.886 L 28.018 5.886 L 28.018 3.881 C 28.018 3.445 27.618 3.088 27.129 3.088 L 24.794 3.088 C 24.305 3.088 23.905 3.445 23.905 3.881 L 23.905 5.886 L 21.658 5.886 C 21.169 5.886 20.769 6.243 20.769 6.679 L 20.769 8.762 C 20.769 9.199 21.169 9.555 21.658 9.555 L 23.905 9.555 L 23.905 11.56 C 23.905 11.996 24.305 12.353 24.795 12.353 L 27.129 12.353 C 27.619 12.353 28.018 11.996 28.018 11.56 L 28.018 9.555 L 30.265 9.555 C 30.754 9.555 31.154 9.199 31.154 8.763 L 31.154 6.679 C 31.154 6.243 30.754 5.886 30.265 5.886 Z"
        fill="#ffffff"
        fill-rule="evenodd"/>
    <path
        id="path_18"
        d="M 45.692 40.147 L 74.769 40.147 L 74.769 66.912 L 45.692 66.912 Z"
        fill="#d1d3d3"
        fill-rule="evenodd"/>
    <path
        id="path_19"
        d="M 49.846 47.353 L 69.577 47.353 L 69.577 54.559 L 49.846 54.559 Z"
        fill="#ffffff"
        fill-rule="evenodd"/>
    <path
        id="path_20"
        d="M 49.846 47.353 L 69.577 47.353 L 69.577 50.441 L 49.846 50.441 Z"
        fill="#000000"
        fill-opacity="0.2"
        stroke-opacity="0.2"
        fill-rule="evenodd"/>
    <path
        id="path_21"
        d="M 59.192 47.353 L 61.269 47.353 L 61.269 54.559 L 59.192 54.559 Z"
        fill="#333e48"
        fill-rule="evenodd"/>
    <path
        id="path_22"
        d="M 45.692 36.03 L 76.181 36.03 C 77.118 36.03 77.885 36.739 77.885 37.606 L 77.885 40.629 C 77.885 41.496 77.118 42.206 76.181 42.206 L 45.692 42.206 L 45.692 36.029 Z"
        fill="#ff5959"
        fill-rule="evenodd"/>
    <path
        id="path_23"
        d="M 48.935 42.075 L 48.935 36 L 45.692 36 L 45.692 66.912 L 48.935 66.912 L 48.935 45.035 L 74.77 45.035 L 74.77 42.075 Z"
        fill="#000000"
        fill-opacity="0.2"
        stroke-opacity="0.2"
        fill-rule="evenodd"/>
    <path
        id="path_24"
        d="M 68.538 66.912 C 68.538 64.069 65.981 61.765 62.827 61.765 C 59.673 61.765 57.115 64.069 57.115 66.912 L 68.538 66.912 Z"
        fill="#218649"
        fill-rule="evenodd"/>
    <path
        id="path_25"
        d="M 10.643 28.024 L 39.973 28.024 C 40.689 28.024 41.27 27.501 41.27 26.856 L 41.27 19.696 C 41.27 19.052 40.69 18.529 39.973 18.529 L 10.643 18.529 C 9.927 18.529 9.346 19.052 9.346 19.697 L 9.346 26.857 C 9.346 27.501 9.926 28.024 10.643 28.024 Z M 11.939 20.864 L 38.677 20.864 L 38.677 25.689 L 11.939 25.689 L 11.939 20.864 Z M 70.615 54.421 L 70.615 47.261 C 70.615 46.617 70.035 46.094 69.319 46.094 L 49.764 46.094 C 49.048 46.094 48.467 46.617 48.467 47.261 L 48.467 54.421 C 48.467 55.065 49.047 55.588 49.764 55.588 L 69.319 55.588 C 70.035 55.588 70.615 55.065 70.615 54.421 Z M 68.022 53.254 L 51.061 53.254 L 51.061 48.429 L 68.022 48.429 L 68.022 53.254 Z M 10.642 51.626 L 39.973 51.626 C 40.689 51.626 41.27 51.104 41.27 50.459 L 41.27 43.299 C 41.27 42.655 40.69 42.132 39.973 42.132 L 10.643 42.132 C 9.927 42.132 9.346 42.654 9.346 43.299 L 9.346 50.459 C 9.346 51.104 9.926 51.626 10.643 51.626 Z M 11.939 44.466 L 38.677 44.466 L 38.677 49.292 L 11.939 49.292 L 11.939 44.467 Z M 10.643 39.825 L 39.973 39.825 C 40.689 39.825 41.27 39.302 41.27 38.658 L 41.27 31.498 C 41.27 30.853 40.69 30.331 39.973 30.331 L 10.643 30.331 C 9.927 30.331 9.346 30.853 9.346 31.498 L 9.346 38.658 C 9.346 39.302 9.926 39.825 10.643 39.825 Z M 11.939 32.665 L 38.677 32.665 L 38.677 37.49 L 11.939 37.49 L 11.939 32.665 Z"
        fill="#333e48"/>
</svg>
