<svg
    xmlns="http://www.w3.org/2000/svg"
    viewBox="0 0 22 22"
    id="vector">
    <path
        id="path"
        d="M 11 11 M 6 11 C 6 9.674 6.527 8.402 7.464 7.464 C 8.402 6.527 9.674 6 11 6 C 12.326 6 13.598 6.527 14.536 7.464 C 15.473 8.402 16 9.674 16 11 C 16 12.326 15.473 13.598 14.536 14.536 C 13.598 15.473 12.326 16 11 16 C 9.674 16 8.402 15.473 7.464 14.536 C 6.527 13.598 6 12.326 6 11"
        fill="#00000000"
        stroke="#000000"
        stroke-width="2"
        stroke-linecap="round"
        stroke-linejoin="round"
        fill-rule="evenodd"/>
    <path
        id="path_2"
        d="M 11 3 L 11 1 M 19 11 L 21 11 M 11 19 L 11 21 M 3 11 L 1 11"
        fill="#00000000"
        stroke="#000000"
        stroke-width="2"
        stroke-linecap="round"
        stroke-linejoin="round"
        fill-rule="evenodd"/>
</svg>
