<svg
    xmlns="http://www.w3.org/2000/svg"
    viewBox="0 0 32 32"
    id="vector">
    <path
        id="path_1"
        d="M 16 16 M 0 16 C 0 11.758 1.687 7.686 4.686 4.686 C 7.686 1.687 11.758 0 16 0 C 20.242 0 24.314 1.687 27.314 4.686 C 30.313 7.686 32 11.758 32 16 C 32 20.242 30.313 24.314 27.314 27.314 C 24.314 30.313 20.242 32 16 32 C 11.758 32 7.686 30.313 4.686 27.314 C 1.687 24.314 0 20.242 0 16"
        fill="#0eaeb6"
        fill-rule="evenodd"/>
    <path
        id="path_2"
        d="M 19.963 9.04 L 19.963 8.573 C 19.963 8.042 19.533 7.612 19.003 7.612 L 17.426 7.612 C 17.616 7.248 17.675 6.83 17.593 6.428 C 17.511 6.026 17.293 5.665 16.976 5.405 C 16.659 5.145 16.261 5.002 15.851 5 C 15.441 5.001 15.043 5.144 14.726 5.404 C 14.409 5.664 14.191 6.026 14.109 6.428 C 14.028 6.831 14.087 7.249 14.278 7.612 L 12.985 7.612 C 12.816 7.612 12.651 7.656 12.505 7.74 C 12.358 7.824 12.237 7.946 12.153 8.092 C 12.068 8.238 12.024 8.403 12.024 8.572 L 12.024 9.04 L 9.881 9.04 C 9.077 9.04 8.425 9.693 8.425 10.497 L 8.425 24.861 C 8.425 25.666 9.077 26.319 9.881 26.319 L 22.104 26.319 C 22.909 26.319 23.561 25.667 23.561 24.861 L 23.561 10.497 C 23.561 9.693 22.909 9.04 22.104 9.04 L 19.964 9.04 Z M 14.791 6.783 C 14.791 6.197 15.267 5.72 15.851 5.72 C 16.436 5.72 16.911 6.197 16.911 6.783 C 16.911 7.117 16.755 7.405 16.511 7.613 L 15.191 7.613 C 15.067 7.513 14.968 7.386 14.898 7.243 C 14.829 7.099 14.793 6.942 14.791 6.783 Z M 22.104 23.995 C 22.104 24.233 22.01 24.461 21.842 24.629 C 21.674 24.797 21.446 24.891 21.208 24.891 L 10.778 24.891 C 10.621 24.891 10.466 24.85 10.33 24.771 C 10.193 24.693 10.08 24.58 10.001 24.443 C 9.922 24.307 9.881 24.152 9.881 23.995 L 9.881 11.393 C 9.881 10.898 10.283 10.497 10.777 10.497 L 12.023 10.497 C 12.023 10.891 12.342 11.211 12.736 11.211 L 19.249 11.211 C 19.643 11.211 19.962 10.892 19.962 10.497 L 21.208 10.497 C 21.702 10.497 22.104 10.899 22.104 11.393 L 22.104 23.995 Z"
        fill="#ffffff"/>
    <path
        id="path_3"
        d="M 12.568 13.732 M 11.302 13.732 C 11.302 13.396 11.435 13.074 11.673 12.837 C 11.91 12.599 12.232 12.466 12.568 12.466 C 12.904 12.466 13.226 12.599 13.463 12.837 C 13.701 13.074 13.834 13.396 13.834 13.732 C 13.834 14.068 13.701 14.39 13.463 14.627 C 13.226 14.865 12.904 14.998 12.568 14.998 C 12.232 14.998 11.91 14.865 11.673 14.627 C 11.435 14.39 11.302 14.068 11.302 13.732"
        fill="#ffffff"
        fill-rule="evenodd"/>
    <path
        id="path_4"
        d="M 19.77 13.025 L 15.454 13.025 C 15.271 13.035 15.099 13.114 14.973 13.247 C 14.847 13.38 14.777 13.556 14.777 13.739 C 14.777 13.922 14.847 14.098 14.973 14.231 C 15.099 14.364 15.271 14.443 15.454 14.453 L 19.773 14.453 C 19.924 14.453 20.071 14.406 20.194 14.317 C 20.316 14.228 20.407 14.103 20.454 13.96 C 20.501 13.816 20.5 13.661 20.454 13.517 C 20.407 13.374 20.315 13.249 20.193 13.16 C 20.07 13.072 19.923 13.024 19.772 13.025 Z"
        fill="#ffffff"
        fill-rule="evenodd"/>
    <path
        id="path_5"
        d="M 12.568 17.323 M 11.302 17.323 C 11.302 16.987 11.435 16.665 11.673 16.428 C 11.91 16.19 12.232 16.057 12.568 16.057 C 12.904 16.057 13.226 16.19 13.463 16.428 C 13.701 16.665 13.834 16.987 13.834 17.323 C 13.834 17.659 13.701 17.981 13.463 18.218 C 13.226 18.456 12.904 18.589 12.568 18.589 C 12.232 18.589 11.91 18.456 11.673 18.218 C 11.435 17.981 11.302 17.659 11.302 17.323"
        fill="#ffffff"
        fill-rule="evenodd"/>
    <path
        id="path_6"
        d="M 19.77 16.594 L 15.454 16.594 C 15.261 16.595 15.076 16.672 14.94 16.808 C 14.804 16.945 14.728 17.13 14.728 17.323 C 14.728 17.515 14.804 17.7 14.94 17.837 C 15.076 17.973 15.261 18.05 15.454 18.051 L 19.773 18.051 C 20.17 18.051 20.492 17.721 20.492 17.323 C 20.492 17.131 20.417 16.947 20.282 16.81 C 20.147 16.674 19.964 16.596 19.772 16.594 Z"
        fill="#ffffff"
        fill-rule="evenodd"/>
    <path
        id="path_7"
        d="M 12.568 21.161 M 11.303 21.161 C 11.303 20.826 11.436 20.504 11.674 20.267 C 11.911 20.029 12.233 19.896 12.568 19.896 C 12.903 19.896 13.225 20.029 13.462 20.267 C 13.7 20.504 13.833 20.826 13.833 21.161 C 13.833 21.496 13.7 21.818 13.462 22.055 C 13.225 22.293 12.903 22.426 12.568 22.426 C 12.233 22.426 11.911 22.293 11.674 22.055 C 11.436 21.818 11.303 21.496 11.303 21.161"
        fill="#ffffff"
        fill-rule="evenodd"/>
    <path
        id="path_8"
        d="M 19.77 20.43 L 15.454 20.43 C 15.261 20.431 15.076 20.508 14.94 20.644 C 14.804 20.781 14.728 20.966 14.728 21.159 C 14.728 21.351 14.804 21.536 14.94 21.673 C 15.076 21.809 15.261 21.886 15.454 21.887 L 19.773 21.887 C 19.965 21.885 20.148 21.807 20.282 21.671 C 20.417 21.535 20.492 21.351 20.492 21.159 C 20.492 20.967 20.417 20.783 20.282 20.646 C 20.147 20.51 19.964 20.432 19.772 20.43 Z"
        fill="#ffffff"
        fill-rule="evenodd"/>
</svg>
