<svg
    xmlns="http://www.w3.org/2000/svg"
    viewBox="0 0 40 40"
    id="vector">
<!--    <path-->
<!--        id="path_1"-->
<!--        d="M 20 21 L 20 21 C 20.265 21 20.52 21.105 20.707 21.293 C 20.895 21.48 21 21.735 21 22 L 21 43 C 21 43.265 20.895 43.52 20.707 43.707 C 20.52 43.895 20.265 44 20 44 L 20 44 C 19.735 44 19.48 43.895 19.293 43.707 C 19.105 43.52 19 43.265 19 43 L 19 22 C 19 21.735 19.105 21.48 19.293 21.293 C 19.48 21.105 19.735 21 20 21 Z"-->
<!--        fill="#0a1f4d"-->
<!--        fill-rule="evenodd"/>-->
<!--    <path-->
<!--        id="path_2"-->
<!--        d="M 20 44 M 17 44 C 17 43.205 17.316 42.441 17.879 41.879 C 18.441 41.316 19.205 41 20 41 C 20.795 41 21.559 41.316 22.121 41.879 C 22.684 42.441 23 43.205 23 44 C 23 44.795 22.684 45.559 22.121 46.121 C 21.559 46.684 20.795 47 20 47 C 19.205 47 18.441 46.684 17.879 46.121 C 17.316 45.559 17 44.795 17 44"-->
<!--        fill="#0a1f4d"-->
<!--        fill-rule="evenodd"/>-->
    <path
        id="path_3"
        d="M 20 18 M 5 18 C 5 14.023 6.581 10.205 9.393 7.393 C 12.205 4.581 16.023 3 20 3 C 23.977 3 27.795 4.581 30.607 7.393 C 33.419 10.205 35 14.023 35 18 C 35 21.977 33.419 25.795 30.607 28.607 C 27.795 31.419 23.977 33 20 33 C 16.023 33 12.205 31.419 9.393 28.607 C 6.581 25.795 5 21.977 5 18"
        fill="#000000"
        fill-rule="evenodd"/>
    <path
        id="path_4"
        d="M 20 18 M 5 18 C 5 14.023 6.581 10.205 9.393 7.393 C 12.205 4.581 16.023 3 20 3 C 23.977 3 27.795 4.581 30.607 7.393 C 33.419 10.205 35 14.023 35 18 C 35 21.977 33.419 25.795 30.607 28.607 C 27.795 31.419 23.977 33 20 33 C 16.023 33 12.205 31.419 9.393 28.607 C 6.581 25.795 5 21.977 5 18"
        fill="#ff5959"
        stroke="#ffffff"
        stroke-width="2"
        fill-rule="evenodd"/>
    <path
        id="path_5"
        d="M 20.269 13.786 M 17.483 13.786 C 17.483 13.198 17.669 12.624 18.015 12.148 C 18.361 11.673 18.849 11.318 19.408 11.136 C 19.968 10.955 20.57 10.955 21.13 11.136 C 21.689 11.318 22.177 11.673 22.523 12.148 C 22.869 12.624 23.055 13.198 23.055 13.786 C 23.055 14.374 22.869 14.948 22.523 15.424 C 22.177 15.899 21.689 16.254 21.13 16.436 C 20.57 16.617 19.968 16.617 19.408 16.436 C 18.849 16.254 18.361 15.899 18.015 15.424 C 17.669 14.948 17.483 14.374 17.483 13.786"
        fill="#ffffff"
        fill-rule="evenodd"/>
    <path
        id="path_6"
        d="M 25.144 25.25 L 16.09 25.25 L 16.09 21.795 C 16.09 20.839 16.393 19.907 16.955 19.134 C 17.516 18.361 18.309 17.785 19.218 17.49 C 20.127 17.194 21.107 17.194 22.016 17.49 C 22.925 17.785 23.718 18.361 24.279 19.134 C 24.841 19.907 25.144 20.839 25.144 21.795 L 25.144 25.25 Z"
        fill="#ffffff"
        fill-rule="evenodd"/>
    <path
        id="path_7"
        d="M 16.299 20.75 C 15.323 20.747 14.627 20.05 14.209 18.66 C 13.93 17.729 13.93 16.104 14.209 13.786"
        fill="#00000000"
        stroke="#ffffff"
        stroke-width="2"
        stroke-linecap="round"
        stroke-linejoin="round"
        fill-rule="evenodd"/>
</svg>
